PathFileType	4	(X/Y/Z)	./resultDataOpenSim/trcMotMarkerGrf/sub09/qtm-15-02.trc
DataRate	CameraRate	NumFrames	NumMarkers	Units	OrigDataRate	OrigDataStartFrame	OrigNumFrames
250.000000	250.000000	7	24	m	250.000000	322	515
Frame#	Time	L.Toe.Tip			R.Toe.Tip			L.Ankle.Lat			R.Ankle.Lat			L.Ankle.Med			R.Ankle.Med			L.Heel			R.Heel			L.Knee.Lat			R.Knee.Lat			L.Knee.Med			R.Knee.Med			L.Thigh.Upper			R.Thigh.Upper			L.ASIS			R.ASIS			V.Sacral			L.Acromium			R.Acromium			C7			L.Elbow			R.Elbow			L.Wrist.Lat			R.Wrist.Lat
		X1	Y1	Z1	X2	Y2	Z2	X3	Y3	Z3	X4	Y4	Z4	X5	Y5	Z5	X6	Y6	Z6	X7	Y7	Z7	X8	Y8	Z8	X9	Y9	Z9	X10	Y10	Z10	X11	Y11	Z11	X12	Y12	Z12	X13	Y13	Z13	X14	Y14	Z14	X15	Y15	Z15	X16	Y16	Z16	X17	Y17	Z17	X18	Y18	Z18	X19	Y19	Z19	X20	Y20	Z20	X21	Y21	Z21	X22	Y22	Z22	X23	Y23	Z23	X24	Y24	Z24

322	1.284	0.18050026	-0.048155471	0.019500453	1.1135424	0.042256286	0.057067629	0.13835943	0.091691257	-0.073435941	0.9674568	0.05437418	0.10295741	0.16388147	0.091935833	0.022148937	0.96807572	0.091109822	0.0090044447	0.073171026	0.12530172	-0.031455809	0.89661674	0.031894616	0.059101787	0.44031888	0.38842217	-0.10358335	0.95058235	0.50808964	0.16197976	0.44337078	0.37940939	0.02203182	0.92834256	0.49501552	0.03879377	0.60577868	0.76544668	-0.12263455	0.68053016	0.80140266	0.24480085	0.72292719	0.83187493	-0.085189885	0.74540696	0.87041851	0.1518727	0.57817617	0.92327508	0.043934178	0.78569959	1.3026811	-0.10837965	0.75199631	1.3064451	0.22348705	0.70117495	1.3591388	0.053585563	0.60930395	0.97801212	-0.1938001	0.54161379	1.0224161	0.31140632	0.77892334	0.76738981	-0.18388947	0.58833451	0.75679772	0.3489508
323	1.288	0.18192942	-0.046832506	0.018384699	1.1138395	0.041921856	0.05689255	0.14311822	0.094600076	-0.074525661	0.96774461	0.054255294	0.10281506	0.1689368	0.09408998	0.02099195	0.96852584	0.091324613	0.0088138215	0.078793371	0.12960029	-0.032159967	0.89670837	0.03193317	0.059079465	0.44936065	0.38672209	-0.10444465	0.95639026	0.50743563	0.16162208	0.45237414	0.37728046	0.021113455	0.93513629	0.496064	0.038255457	0.61323632	0.76455663	-0.12238559	0.68613375	0.80146898	0.24530596	0.72986013	0.83119464	-0.084353078	0.75186204	0.8704645	0.15264991	0.58547448	0.92288997	0.043788228	0.79339726	1.3020515	-0.10806146	0.75957498	1.305569	0.22377627	0.70868132	1.3586652	0.053844377	0.61598546	0.97809453	-0.19354143	0.54964784	1.0212883	0.311915	0.78393931	0.76607959	-0.18405612	0.59604469	0.7556664	0.34950076
324	1.292	0.18332522	-0.045386585	0.01712004	1.1140792	0.041660745	0.056665997	0.14804017	0.097765542	-0.075484426	0.9678668	0.054175174	0.10263408	0.17413575	0.096411843	0.01994603	0.96891737	0.091360445	0.0085381039	0.084628918	0.13420362	-0.032748364	0.89677093	0.03194148	0.058956993	0.45863866	0.38494191	-0.10532356	0.96173077	0.50658652	0.16113769	0.46151621	0.37503651	0.020284819	0.94168789	0.49662516	0.037653208	0.62042661	0.76365284	-0.12221561	0.69183209	0.80167528	0.24570836	0.73663233	0.83059836	-0.083510034	0.75831092	0.8705815	0.15348283	0.59243709	0.92261261	0.04377528	0.80104872	1.3014651	-0.10773627	0.7671004	1.3047804	0.22403371	0.71613437	1.3582837	0.054093459	0.62271605	0.97818144	-0.1933388	0.55750393	1.0201979	0.312336	0.78888687	0.76475109	-0.18420717	0.60374115	0.75459369	0.35003235
325	1.296	0.18470123	-0.043788934	0.015666834	1.1142913	0.04145396	0.056332122	0.1531184	0.10120808	-0.076288239	0.96801567	0.054129817	0.10239201	0.1795016	0.098922743	0.019003231	0.96932362	0.091164095	0.0081813271	0.090709806	0.13910847	-0.03327132	0.89683589	0.031929342	0.05877051	0.46817335	0.38311126	-0.106216	0.96674068	0.50561963	0.16053507	0.47086911	0.37272872	0.019518611	0.94797226	0.49673915	0.036999406	0.62743765	0.76276486	-0.12204035	0.6976534	0.80199057	0.24606096	0.74324205	0.83007548	-0.082669966	0.76477963	0.87074011	0.15437366	0.59883229	0.92248009	0.043935327	0.80863484	1.3009256	-0.10741596	0.77458296	1.30408	0.22425898	0.72352492	1.3579812	0.054349442	0.62949322	0.97827171	-0.19319088	0.56514085	1.0191479	0.31264935	0.79378281	0.76340516	-0.18432872	0.6114544	0.7535919	0.35055088
326	1.3	0.18607179	-0.041974684	0.013953053	1.1144927	0.041285534	0.055941664	0.15833394	0.10497403	-0.07696415	0.96828685	0.054092182	0.10212703	0.18504412	0.10164661	0.018141375	0.96974351	0.09081765	0.0078086314	0.097042994	0.14433689	-0.033699043	0.89691396	0.031908485	0.058586792	0.47797499	0.3812651	-0.10711165	0.97161237	0.50466408	0.15987511	0.48058984	0.37042798	0.018694054	0.95395519	0.4965043	0.036333017	0.63432416	0.76190497	-0.12178808	0.70360715	0.80237263	0.24641142	0.7497096	0.82963794	-0.081852351	0.77120201	0.87091288	0.15526484	0.60454379	0.92249295	0.044209007	0.81613926	1.3004398	-0.10711121	0.7820274	1.3034803	0.22445627	0.73083455	1.3577504	0.054598668	0.63630704	0.97837262	-0.19308735	0.5726364	1.0181595	0.31288352	0.79863658	0.76205278	-0.18441582	0.61921596	0.75267804	0.35105124
327	1.304	0.18745143	-0.039837148	0.011888207	1.114677	0.041147027	0.055609703	0.16367869	0.10913009	-0.077585554	0.96863056	0.054033835	0.10190071	0.19075285	0.10461569	0.017339957	0.97011907	0.090462553	0.0075051138	0.10361962	0.14993025	-0.03394369	0.89698567	0.031887418	0.058465083	0.48804566	0.37943017	-0.10799431	0.9764802	0.50383784	0.1592131	0.49076061	0.36816428	0.017708097	0.9596069	0.49603919	0.035690281	0.64109356	0.76106845	-0.12141862	0.70968246	0.80278463	0.24677891	0.75605929	0.82930595	-0.081081754	0.77748991	0.87108758	0.15607891	0.60971164	0.92260643	0.044476268	0.82355063	1.3000205	-0.10683339	0.78942412	1.303	0.2246284	0.73804073	1.3575972	0.054809435	0.64314356	0.97849116	-0.19301844	0.58015357	1.0172681	0.313109	0.80345392	0.76071573	-0.18447701	0.62706047	0.75187374	0.35152696
328	1.308	0.18886683	-0.037271025	0.0094272313	1.1148122	0.041038884	0.055413184	0.16916363	0.11372762	-0.078204969	0.9689374	0.053942267	0.10174317	0.19660998	0.10786429	0.016588494	0.97040741	0.090203345	0.0073153245	0.11044136	0.15590886	-0.03396257	0.89701922	0.03186671	0.058430549	0.49838809	0.37761527	-0.10883789	0.98139267	0.50320014	0.15857454	0.50125948	0.36591836	0.016629871	0.96491708	0.49545438	0.03508645	0.64774908	0.76025152	-0.12091915	0.71585824	0.8032014	0.24715522	0.76229792	0.82908348	-0.080372518	0.78362024	0.87127169	0.15678205	0.6147752	0.9227735	0.044682906	0.83085856	1.2996795	-0.1065933	0.79675405	1.3026509	0.22477211	0.74513266	1.3575277	0.054966751	0.64997907	0.97862937	-0.19297759	0.58779791	1.0165041	0.31338169	0.80824493	0.75941876	-0.18453072	0.63499562	0.75119417	0.35196527
